<svg width="162" height="48" viewBox="0 0 162 48" fill="none" xmlns="http://www.w3.org/2000/svg">
<path d="M29.5104 23.7596C29.5104 23.8808 29.5104 24.0065 29.5104 24.1321C29.4269 27.4026 28.2595 30.5527 26.1915 33.0877C24.1235 35.6227 21.2721 37.3991 18.085 38.1379C17.3468 38.308 16.5967 38.422 15.8412 38.4789C15.4867 38.4789 15.1322 38.5148 14.7732 38.5148C11.6602 38.5177 8.62603 37.5362 6.10446 35.7107C3.5829 33.8852 1.70308 31.3092 0.733761 28.351C-0.235554 25.3928 -0.244724 22.2038 0.707562 19.2401C1.65985 16.2763 3.52483 13.6895 6.03585 11.8496C6.42459 11.5632 6.82748 11.2966 7.24301 11.0508C7.56163 10.8623 7.88474 10.6873 8.22131 10.5212L8.33798 10.4629C10.551 9.39682 12.9951 8.89976 15.4487 9.01676C17.9024 9.13376 20.2881 9.86111 22.3897 11.1329C24.4912 12.4047 26.2423 14.1808 27.4841 16.3002C28.7259 18.4196 29.4193 20.8154 29.5015 23.2705C29.5015 23.2705 29.5015 23.2929 29.5015 23.3064C29.5104 23.4545 29.5104 23.6071 29.5104 23.7596Z" fill="#6F6CB7"/>
<path d="M16.0433 21.6774C15.8407 21.1807 15.5416 20.729 15.1634 20.3485C14.7853 19.968 14.3354 19.6662 13.8399 19.4606C13.3163 19.2449 12.7548 19.1366 12.1885 19.1419H7.87144C7.71469 19.1314 7.55773 19.159 7.41394 19.2223C7.27016 19.2856 7.14382 19.3827 7.04572 19.5054C6.86841 19.7279 6.77186 20.004 6.77186 20.2885C6.77186 20.573 6.86841 20.8491 7.04572 21.0716C7.14479 21.1929 7.27141 21.2888 7.41505 21.3512C7.55868 21.4137 7.71515 21.4409 7.87144 21.4306H12.1885C12.444 21.4196 12.699 21.4622 12.9371 21.5555C13.1752 21.6488 13.3912 21.7909 13.5712 21.9726C13.7512 22.1543 13.8912 22.3716 13.9823 22.6105C14.0734 22.8495 14.1136 23.1049 14.1002 23.3603V23.5936C14.1117 23.8477 14.0701 24.1014 13.9781 24.3386C13.8861 24.5757 13.7457 24.7911 13.5658 24.971C13.3859 25.1508 13.1706 25.2912 12.9334 25.3832C12.6963 25.4752 12.4426 25.5168 12.1885 25.5054H7.87144C7.63365 25.5091 7.39766 25.4636 7.17833 25.3717C6.95899 25.2798 6.76105 25.1435 6.59696 24.9713C6.423 24.7878 6.28736 24.5714 6.19798 24.3349C6.1086 24.0983 6.06727 23.8463 6.0764 23.5936V11.8496H6.03601C5.23194 12.4392 4.48924 13.1083 3.81914 13.8466V23.5757C3.80607 24.6823 4.23208 25.7489 5.00386 26.542C5.37042 26.9245 5.80988 27.2296 6.29629 27.4395C6.79333 27.6546 7.3299 27.7631 7.87144 27.7581H12.1885C12.755 27.7657 13.317 27.6573 13.8399 27.4395C14.8343 27.0237 15.6255 26.2341 16.0433 25.2406C16.259 24.717 16.3673 24.1554 16.362 23.5892V23.3603C16.3688 22.7837 16.2605 22.2116 16.0433 21.6774Z" fill="white"/>
<path d="M28.0474 26.277C27.6296 25.2836 26.8384 24.4939 25.844 24.0781C25.3221 23.862 24.7619 23.7536 24.1971 23.7595H19.88C19.3373 23.7568 18.7997 23.8652 18.3004 24.0781C17.8147 24.287 17.3766 24.5924 17.0125 24.9756C16.6484 25.3534 16.3564 25.7944 16.1508 26.277C15.9352 26.8007 15.8269 27.3622 15.8322 27.9285V38.4788C16.5877 38.4219 17.3378 38.3079 18.076 38.1378V27.9285C18.066 27.6763 18.1069 27.4248 18.1963 27.1888C18.2858 26.9529 18.4219 26.7374 18.5966 26.5553C18.7594 26.3812 18.957 26.2433 19.1766 26.1506C19.3961 26.0578 19.6327 26.0122 19.8711 26.0168H24.1881C24.4417 26.0073 24.6945 26.0503 24.9307 26.1431C25.1669 26.2358 25.3815 26.3763 25.5609 26.5557C25.7403 26.7351 25.8808 26.9497 25.9735 27.1859C26.0663 27.4221 26.1093 27.6749 26.0998 27.9285V28.1618C26.1131 28.4164 26.0732 28.671 25.9826 28.9094C25.8921 29.1477 25.7528 29.3645 25.5738 29.5461C25.3948 29.7276 25.1799 29.8699 24.9429 29.9638C24.7059 30.0577 24.4519 30.1012 24.1971 30.0915H19.88C19.7232 30.0806 19.5661 30.108 19.4223 30.1713C19.2785 30.2346 19.1522 30.332 19.0543 30.455C18.8774 30.6768 18.781 30.9521 18.781 31.2358C18.781 31.5196 18.8774 31.7949 19.0543 32.0167C19.1522 32.1397 19.2785 32.237 19.4223 32.3003C19.5661 32.3637 19.7232 32.3911 19.88 32.3802H24.1971C24.7619 32.386 25.3221 32.2776 25.844 32.0615C26.3395 31.8559 26.7894 31.5541 27.1676 31.1736C27.5457 30.7931 27.8448 30.3414 28.0474 29.8447C28.2623 29.3161 28.3706 28.7503 28.3661 28.1798V27.9464C28.3738 27.3741 28.2654 26.8062 28.0474 26.277Z" fill="white"/>
<path d="M29.5106 23.7596C29.5106 23.8808 29.5106 24.0065 29.5106 24.1321C29.5106 24.1321 20.7688 23.7596 17.0486 17.7418C15.9842 15.9931 14.559 14.4917 12.8681 13.3378C11.1772 12.184 9.2595 11.4043 7.24316 11.0508C7.56178 10.8623 7.88489 10.6873 8.22146 10.5212L8.33814 10.4629C10.5512 9.39682 12.9953 8.89976 15.4489 9.01676C17.9026 9.13376 20.2882 9.86111 22.3898 11.1329C24.4914 12.4047 26.2424 14.1808 27.4842 16.3002C28.7261 18.4196 29.4195 20.8154 29.5016 23.2705C29.5016 23.2705 29.5016 23.2929 29.5016 23.3064C29.5106 23.4545 29.5106 23.6071 29.5106 23.7596Z" fill="#6F6CB7"/>
<path d="M50.3305 23.352C51.6958 23.672 52.7732 24.3333 53.5625 25.336C54.3732 26.3387 54.7785 27.5013 54.7785 28.824C54.7785 30.7653 54.1278 32.28 52.8265 33.368C51.5465 34.456 49.7012 35 47.2905 35H36.7625V12.376H47.0345C49.3385 12.376 51.1198 12.8773 52.3785 13.88C53.6372 14.8827 54.2665 16.312 54.2665 18.168C54.2665 19.5333 53.9038 20.6747 53.1785 21.592C52.4532 22.488 51.5038 23.0747 50.3305 23.352ZM42.2345 21.624H45.8185C47.7172 21.624 48.6665 20.8133 48.6665 19.192C48.6665 17.5707 47.6958 16.76 45.7545 16.76H42.2345V21.624ZM46.1385 30.552C48.1652 30.552 49.1785 29.72 49.1785 28.056C49.1785 27.2453 48.9118 26.616 48.3785 26.168C47.8452 25.6987 47.0878 25.464 46.1065 25.464H42.2345V30.552H46.1385ZM63.1408 27.064V35H57.6688V12.376H66.5328C69.2208 12.376 71.2688 13.048 72.6768 14.392C74.0848 15.7147 74.7888 17.5067 74.7888 19.768C74.7888 21.176 74.4688 22.4347 73.8288 23.544C73.2101 24.632 72.2821 25.496 71.0448 26.136C69.8074 26.7547 68.3034 27.064 66.5328 27.064H63.1408ZM65.9248 22.68C68.1221 22.68 69.2208 21.7093 69.2208 19.768C69.2208 17.784 68.1221 16.792 65.9248 16.792H63.1408V22.68H65.9248ZM100.144 12.376V16.728H93.9995V35H88.4955V16.728H82.4155V12.376H100.144ZM119.41 25.592C119.41 26.04 119.357 26.5307 119.25 27.064H106.866C106.93 28.408 107.271 29.3787 107.89 29.976C108.509 30.552 109.298 30.84 110.258 30.84C111.069 30.84 111.741 30.6373 112.274 30.232C112.807 29.8267 113.159 29.304 113.33 28.664H119.122C118.887 29.9227 118.375 31.0533 117.586 32.056C116.797 33.0373 115.794 33.816 114.578 34.392C113.362 34.9467 112.007 35.224 110.514 35.224C108.765 35.224 107.207 34.8613 105.842 34.136C104.498 33.3893 103.442 32.3227 102.674 30.936C101.906 29.5493 101.522 27.928 101.522 26.072C101.522 24.1947 101.895 22.5733 102.642 21.208C103.41 19.8213 104.477 18.7653 105.842 18.04C107.207 17.2933 108.765 16.92 110.514 16.92C112.285 16.92 113.842 17.2827 115.186 18.008C116.53 18.7333 117.565 19.7573 118.29 21.08C119.037 22.3813 119.41 23.8853 119.41 25.592ZM113.874 24.76C113.895 23.5867 113.575 22.712 112.914 22.136C112.274 21.5387 111.474 21.24 110.514 21.24C109.511 21.24 108.679 21.5387 108.018 22.136C107.357 22.7333 106.983 23.608 106.898 24.76H113.874ZM130.327 16.92C132.631 16.92 134.561 17.56 136.119 18.84C137.676 20.0987 138.657 21.8373 139.063 24.056H133.271C133.1 23.288 132.748 22.6907 132.215 22.264C131.681 21.8373 131.009 21.624 130.199 21.624C129.239 21.624 128.449 22.008 127.831 22.776C127.212 23.5227 126.903 24.6213 126.903 26.072C126.903 27.5227 127.212 28.632 127.831 29.4C128.449 30.1467 129.239 30.52 130.199 30.52C131.009 30.52 131.681 30.3067 132.215 29.88C132.748 29.4533 133.1 28.856 133.271 28.088H139.063C138.657 30.3067 137.676 32.056 136.119 33.336C134.561 34.5947 132.631 35.224 130.327 35.224C128.577 35.224 127.02 34.8613 125.655 34.136C124.311 33.3893 123.255 32.3227 122.487 30.936C121.719 29.5493 121.335 27.928 121.335 26.072C121.335 24.1947 121.708 22.5733 122.455 21.208C123.223 19.8213 124.289 18.7653 125.655 18.04C127.02 17.2933 128.577 16.92 130.327 16.92ZM153.247 16.952C155.295 16.952 156.916 17.6347 158.111 19C159.327 20.3653 159.935 22.2427 159.935 24.632V35H154.463V25.272C154.463 24.0773 154.143 23.1493 153.503 22.488C152.884 21.8053 152.052 21.464 151.007 21.464C149.897 21.464 149.012 21.816 148.351 22.52C147.711 23.224 147.391 24.2267 147.391 25.528V35H141.919V11.32H147.391V20.408C147.903 19.3413 148.66 18.4987 149.663 17.88C150.687 17.2613 151.881 16.952 153.247 16.952Z" fill="white"/>
</svg>
