<svg width="135" height="38" viewBox="0 0 135 38" fill="none" xmlns="http://www.w3.org/2000/svg">
<g clip-path="url(#clip0_30216_8831)">
<path d="M41.2794 23.0131C41.2794 23.8652 41.1232 24.6804 40.8373 25.4318C39.8589 27.9986 37.3731 29.8219 34.4601 29.8219C31.4788 29.8219 28.9454 27.9119 28.0179 25.2503C22.5104 25.6456 19.3612 23.1875 18.0517 18.5025C14.7439 17.6042 12.3125 14.5843 12.3125 10.9964C12.3125 8.67596 13.3301 6.59234 14.944 5.16803C16.3173 3.95401 18.1235 3.21753 20.1021 3.21753C22.369 3.21753 24.4102 4.18398 25.832 5.72883C26.7883 5.10438 27.931 4.74243 29.1584 4.74243C30.0151 4.74243 30.8315 4.91942 31.5713 5.23853C33.7121 6.16119 35.2173 8.27464 35.2508 10.7433C35.2519 10.7721 35.2519 10.7999 35.2519 10.8289L35.2508 10.9318V10.9329C35.5621 10.8647 35.8851 10.8289 36.2175 10.8289C37.7018 10.8289 39.0206 11.5388 39.8518 12.6371H39.8531C40.4296 13.3991 40.7712 14.3483 40.7712 15.3774C40.7732 16.4446 40.3967 17.4781 39.7083 18.2944C39.6566 18.3574 39.6029 18.4187 39.5472 18.4783C40.6253 19.6819 41.2793 21.2716 41.2793 23.0131" fill="#FF5CAA"/>
<path d="M29.0833 10.4467C27.8495 11.7856 27.0961 13.573 27.0961 15.5361C27.0961 19.6881 30.4667 23.0541 34.6244 23.0541C35.1609 23.0543 35.6958 22.9976 36.2202 22.8848M19.7734 8.01992C19.9618 10.7352 22.2271 12.8795 24.994 12.8795M33.3163 11.8711C33.8759 11.4069 34.5397 11.0848 35.251 10.9324M25.8322 5.72827C24.9558 6.29817 24.2356 7.08798 23.7506 8.01992" stroke="#103849" stroke-width="0.926271" stroke-miterlimit="10" stroke-linecap="round" stroke-linejoin="round"/>
<path d="M41.2794 23.0123C41.2794 26.7733 38.2263 29.8212 34.4601 29.8212C31.4788 29.8212 28.9454 27.9112 28.0179 25.2495C22.5104 25.6449 19.3612 23.1868 18.0517 18.5018C14.7439 17.6035 12.3125 14.5835 12.3125 10.9957C12.3125 6.69931 15.7997 3.2168 20.1021 3.2168C22.369 3.2168 24.4102 4.18325 25.832 5.72809C26.7883 5.10365 27.931 4.7417 29.1584 4.7417C32.5241 4.7417 35.2519 7.46701 35.2519 10.8281L35.2508 10.9311V10.9322C35.5621 10.8639 35.8851 10.8281 36.2175 10.8281C38.7322 10.8281 40.7712 12.8641 40.7712 15.3766C40.7712 16.5757 40.3069 17.6648 39.5472 18.4775C40.6253 19.6811 41.2793 21.2709 41.2793 23.0123L41.2794 23.0123Z" stroke="#103849" stroke-width="0.810433" stroke-miterlimit="10" stroke-linejoin="round"/>
<path d="M39.5478 18.4771C39.5478 18.4771 39.0191 17.9293 38.296 17.3591M19.2133 30.8255C18.9148 30.2029 18.7239 29.5344 18.6484 28.8482" stroke="#103849" stroke-width="0.926271" stroke-miterlimit="10" stroke-linecap="round" stroke-linejoin="round"/>
<path d="M32.5859 26.0902C32.8269 26.7581 32.9499 27.4627 32.9493 28.1726C32.9493 31.824 29.74 34.7826 25.7802 34.7826C22.8441 34.7826 20.3211 33.1558 19.2143 30.8261C18.3021 31.4447 17.2078 31.8054 16.0327 31.8054C13.3977 31.8054 11.1746 29.9948 10.4776 27.5182C9.98005 27.6421 9.46912 27.7046 8.9563 27.7044C5.51415 27.7044 2.72266 24.9177 2.72266 21.4792C2.72266 18.8384 4.37018 16.5815 6.69502 15.6785C6.60358 15.3005 6.55495 14.9085 6.55495 14.5062C6.55495 11.3879 9.45646 8.86035 13.0363 8.86035C15.0915 8.86035 16.9252 9.69499 18.112 10.9946C19.0638 10.4847 20.1614 10.1923 21.3308 10.1923C24.9582 10.1923 27.8989 13.0008 27.8989 16.4647C27.8993 16.5464 27.8973 16.6281 27.8931 16.7097C30.8861 17.2578 33.1611 20.0028 33.1611 23.3072C33.1611 24.3003 32.9562 25.2427 32.5858 26.0901" fill="#FF5CAA"/>
<path d="M30.26 23.0129C31.3285 23.8013 32.1461 24.8675 32.5861 26.0907M10.4779 27.5186C10.3296 26.9937 10.2509 26.4399 10.2509 25.8664C10.2509 23.5261 11.5696 21.5017 13.4847 20.534M8.31861 15.2882C7.75132 15.346 7.20712 15.479 6.69531 15.679M18.1136 10.9962L18.1123 10.9951M18.1123 10.9951C17.2985 11.4345 16.5923 12.0335 16.04 12.7481" stroke="#103849" stroke-width="0.926271" stroke-miterlimit="10" stroke-linecap="round" stroke-linejoin="round"/>
<path d="M32.5859 26.0902C32.8269 26.7581 32.9499 27.4627 32.9493 28.1726C32.9493 31.824 29.74 34.7826 25.7802 34.7826C22.8441 34.7826 20.3211 33.1558 19.2143 30.8261C18.3021 31.4447 17.2078 31.8054 16.0327 31.8054C13.3977 31.8054 11.1746 29.9948 10.4776 27.5182C9.98005 27.6421 9.46912 27.7046 8.95629 27.7044C5.51415 27.7044 2.72266 24.9177 2.72266 21.4792C2.72266 18.8384 4.37018 16.5815 6.69502 15.6785C6.60358 15.3005 6.55495 14.9085 6.55495 14.5062C6.55495 11.3879 9.45646 8.86035 13.0363 8.86035C15.0915 8.86035 16.9252 9.69499 18.112 10.9946C19.0638 10.4847 20.1614 10.1923 21.3308 10.1923C24.9582 10.1923 27.8989 13.0008 27.8989 16.4647C27.8993 16.5464 27.8973 16.6281 27.8931 16.7097C30.8861 17.2578 33.1611 20.0028 33.1611 23.3072C33.1611 24.3003 32.9562 25.2427 32.5858 26.0901L32.5859 26.0902Z" stroke="#103849" stroke-width="0.810433" stroke-miterlimit="10" stroke-linejoin="round"/>
<path d="M22.2901 18.5739C23.4433 17.3623 25.0353 16.6118 26.7927 16.6118C27.1679 16.6118 27.535 16.6454 27.8927 16.7111M27.4803 24.587C26.5717 25.7215 25.1739 26.4483 23.6061 26.4483C20.868 26.4483 18.6484 24.2316 18.6484 21.4974C18.6467 20.3557 19.0418 19.2488 19.7662 18.3656" stroke="#103849" stroke-width="0.926271" stroke-miterlimit="10" stroke-linecap="round" stroke-linejoin="round"/>
<path d="M25.7974 28.8988C25.7974 27.9265 25.5519 27.0121 25.1188 26.2131M15.4362 25.7367C16.2536 24.5273 17.5261 23.652 19.0093 23.3549M6.59766 21.484C7.22566 21.2356 7.89507 21.1081 8.57055 21.1083C9.65363 21.1068 10.7114 21.4351 11.6028 22.0496M16.7904 16.9274C16.453 17.0266 16.096 17.0798 15.7264 17.0798C14.7455 17.0811 13.8031 16.6987 13.1011 16.0146M33.0615 16.686C33.5804 16.2993 34.2108 16.0909 34.8583 16.0919C35.0382 16.0918 35.2178 16.1077 35.3949 16.1395" stroke="#103849" stroke-width="0.926271" stroke-miterlimit="10" stroke-linecap="round" stroke-linejoin="round"/>
<path d="M40.0817 18.4802C40.7903 17.6022 41.1768 16.5135 41.1768 15.3768C41.1768 12.6456 38.9522 10.4235 36.2179 10.4235C36.0268 10.4235 35.8361 10.4346 35.647 10.4564C35.4535 7.04955 32.6172 4.33724 29.1586 4.33724C28.0055 4.33724 26.8853 4.63876 25.8984 5.21212C24.3606 3.67756 22.2763 2.81453 20.1023 2.81226C16.4586 2.81226 13.3642 5.19998 12.3019 8.49034C8.84824 8.81301 6.14862 11.3876 6.14862 14.5062C6.14862 14.8165 6.1758 15.1274 6.22937 15.434C3.84088 16.5031 2.31641 18.8398 2.31641 21.4793C2.31641 25.1349 5.29459 28.109 8.95522 28.109C9.37325 28.109 9.79037 28.07 10.2011 27.9925C11.07 30.4941 13.4158 32.21 16.0317 32.21C17.0931 32.2108 18.136 31.9321 19.0552 31.4021C20.3494 33.7157 22.9382 35.1873 25.7791 35.1873C29.2379 35.1873 32.1606 33.0281 33.0636 30.0894C33.5179 30.1788 33.985 30.2259 34.4603 30.2259C38.4439 30.2259 41.685 26.9897 41.685 23.0123C41.685 21.3554 41.1181 19.7595 40.0817 18.4801V18.4802Z" stroke="#103849" stroke-width="1.62095" stroke-miterlimit="10" stroke-linejoin="round"/>
<path d="M20.1016 0.5C17.9612 0.5 15.9023 1.1365 14.1476 2.34055C12.6325 3.38019 11.4315 4.78247 10.6382 6.42904C6.77653 7.36358 4.01561 10.4669 3.84107 14.1365C1.45093 15.7938 0 18.5301 0 21.4795C0 26.3584 3.93346 30.3373 8.79962 30.4202C10.3362 32.9414 13.0753 34.5227 16.0309 34.5227C16.7859 34.5227 17.5279 34.4228 18.2476 34.2247C20.1103 36.2934 22.847 37.4999 25.7783 37.4999C27.764 37.4999 29.6874 36.9376 31.3406 35.8743C32.6841 35.0102 33.7665 33.8697 34.5156 32.5384C39.7506 32.5084 43.9998 28.2466 43.9998 23.0126C43.9998 21.3954 43.5947 19.8263 42.821 18.4233C43.2631 17.4685 43.492 16.429 43.4917 15.3769C43.4917 13.4715 42.7563 11.6697 41.4208 10.3037C40.3677 9.22632 39.0347 8.51464 37.584 8.23923C37.0937 6.64964 36.1547 5.21744 34.8715 4.12586C33.2771 2.77051 31.2519 2.02577 29.158 2.02481C28.1821 2.02481 27.2026 2.19018 26.2797 2.50704C24.4869 1.20717 22.3262 0.5 20.1016 0.5ZM20.1016 2.00305C22.2718 2.00305 24.4 2.80786 26.0302 4.22879C27.008 3.7671 28.0762 3.52777 29.1579 3.52804C32.7606 3.52804 35.7857 6.14443 36.3668 9.61628C39.4788 9.69598 41.9864 12.2496 41.9864 15.377C41.9853 16.4728 41.6722 17.5457 41.0837 18.4706C41.9972 19.7999 42.4945 21.3902 42.4945 23.0127C42.4945 27.4366 38.8899 31.0357 34.4594 31.0357C34.1729 31.0357 33.8853 31.0201 33.5991 30.9892C32.3625 33.9698 29.2465 35.997 25.7782 35.997C22.918 35.997 20.2969 34.6573 18.759 32.4549C17.8978 32.8271 16.9693 33.0193 16.0309 33.0197C13.2966 33.0197 10.8236 31.3825 9.68482 28.8831C9.4422 28.9068 9.19811 28.9186 8.95445 28.9186C4.84697 28.9186 1.5052 25.5815 1.5052 21.4795C1.5052 18.7562 2.99772 16.2612 5.35469 14.9656C5.34326 14.8128 5.33752 14.6596 5.3375 14.5064C5.3375 11.1419 8.03981 8.3152 11.7048 7.74911C13.0437 4.29114 16.3547 2.00305 20.1017 2.00305" fill="#F0F0F0"/>
</g>
<path d="M53.494 25V12.4H56.41V25H53.494ZM65.5023 25.216C64.5183 25.216 63.6003 25.054 62.7483 24.73C61.9083 24.406 61.1763 23.95 60.5522 23.362C59.9403 22.774 59.4603 22.084 59.1123 21.292C58.7763 20.5 58.6083 19.636 58.6083 18.7C58.6083 17.764 58.7763 16.9 59.1123 16.108C59.4603 15.316 59.9463 14.626 60.5703 14.038C61.1943 13.45 61.9263 12.994 62.7663 12.67C63.6063 12.346 64.5183 12.184 65.5023 12.184C66.4983 12.184 67.4102 12.346 68.2383 12.67C69.0783 12.994 69.8043 13.45 70.4163 14.038C71.0403 14.614 71.5263 15.298 71.8743 16.09C72.2223 16.882 72.3963 17.752 72.3963 18.7C72.3963 19.636 72.2223 20.506 71.8743 21.31C71.5263 22.102 71.0403 22.792 70.4163 23.38C69.8043 23.956 69.0783 24.406 68.2383 24.73C67.4102 25.054 66.4983 25.216 65.5023 25.216ZM69.6243 27.898C69.1323 27.898 68.6643 27.844 68.2203 27.736C67.7883 27.628 67.3563 27.454 66.9243 27.214C66.5043 26.974 66.0603 26.65 65.5923 26.242C65.1363 25.834 64.6383 25.33 64.0983 24.73L67.1582 23.956C67.4823 24.4 67.7823 24.754 68.0583 25.018C68.3343 25.282 68.5983 25.468 68.8503 25.576C69.1143 25.684 69.3903 25.738 69.6783 25.738C70.4463 25.738 71.1303 25.426 71.7303 24.802L73.0263 26.35C72.1743 27.382 71.0403 27.898 69.6243 27.898ZM65.5023 22.732C66.0663 22.732 66.5823 22.636 67.0503 22.444C67.5303 22.252 67.9503 21.976 68.3103 21.616C68.6703 21.256 68.9463 20.83 69.1383 20.338C69.3423 19.834 69.4443 19.288 69.4443 18.7C69.4443 18.1 69.3423 17.554 69.1383 17.062C68.9463 16.57 68.6703 16.144 68.3103 15.784C67.9503 15.424 67.5303 15.148 67.0503 14.956C66.5823 14.764 66.0663 14.668 65.5023 14.668C64.9383 14.668 64.4163 14.764 63.9363 14.956C63.4563 15.148 63.0363 15.424 62.6763 15.784C62.3283 16.144 62.0523 16.57 61.8483 17.062C61.6563 17.554 61.5603 18.1 61.5603 18.7C61.5603 19.288 61.6563 19.834 61.8483 20.338C62.0523 20.83 62.3283 21.256 62.6763 21.616C63.0363 21.976 63.4563 22.252 63.9363 22.444C64.4163 22.636 64.9383 22.732 65.5023 22.732ZM75.1002 25.144C74.6202 25.144 74.2062 24.982 73.8582 24.658C73.5222 24.322 73.3542 23.896 73.3542 23.38C73.3542 22.864 73.5222 22.45 73.8582 22.138C74.2062 21.814 74.6202 21.652 75.1002 21.652C75.5922 21.652 76.0062 21.814 76.3422 22.138C76.6782 22.45 76.8462 22.864 76.8462 23.38C76.8462 23.896 76.6782 24.322 76.3422 24.658C76.0062 24.982 75.5922 25.144 75.1002 25.144ZM80.383 25L76.891 15.316H79.537L82.435 23.65H81.175L84.199 15.316H86.575L89.509 23.65H88.249L91.237 15.316H93.721L90.211 25H87.493L84.919 17.854H85.747L83.083 25H80.383ZM95.0265 25V15.316H97.8345V25H95.0265ZM96.4305 13.966C95.9145 13.966 95.4945 13.816 95.1705 13.516C94.8465 13.216 94.6845 12.844 94.6845 12.4C94.6845 11.956 94.8465 11.584 95.1705 11.284C95.4945 10.984 95.9145 10.834 96.4305 10.834C96.9465 10.834 97.3665 10.978 97.6905 11.266C98.0145 11.542 98.1765 11.902 98.1765 12.346C98.1765 12.814 98.0145 13.204 97.6905 13.516C97.3785 13.816 96.9585 13.966 96.4305 13.966ZM102.763 23.02L102.835 19.6L107.353 15.316H110.701L106.363 19.726L104.905 20.914L102.763 23.02ZM100.441 25V11.644H103.249V25H100.441ZM107.659 25L104.383 20.932L106.147 18.754L111.061 25H107.659ZM112.323 25V15.316H115.131V25H112.323ZM113.727 13.966C113.211 13.966 112.791 13.816 112.467 13.516C112.143 13.216 111.981 12.844 111.981 12.4C111.981 11.956 112.143 11.584 112.467 11.284C112.791 10.984 113.211 10.834 113.727 10.834C114.243 10.834 114.663 10.978 114.987 11.266C115.311 11.542 115.473 11.902 115.473 12.346C115.473 12.814 115.311 13.204 114.987 13.516C114.675 13.816 114.255 13.966 113.727 13.966Z" fill="#171923"/>
<defs>
<clipPath id="clip0_30216_8831">
<rect width="44" height="37" fill="white" transform="translate(0 0.5)"/>
</clipPath>
</defs>
</svg>
