<svg xmlns="http://www.w3.org/2000/svg" width="320" height="55" viewBox="0 0 320 55" fill="none"><g clip-path="url(#clip0)"><path d="M76.1003 17.4955C76.1003 17.6688 76.1003 18.0152 76.0146 18.2751C75.9289 18.6215 75.9289 19.0546 75.9289 19.401C75.8432 19.7475 75.7575 20.094 75.6718 20.4404C75.5861 20.7869 75.5861 21.1333 75.5004 21.3932C73.615 30.6609 73.615 33.6924 68.5588 33.779C66.6734 33.779 66.502 33.1727 66.9305 31.4404C67.8732 27.5428 69.2444 21.653 69.2444 19.1412C69.2444 18.4483 69.073 17.9286 68.7302 17.4955C68.3874 17.1491 67.8732 16.9758 67.1876 16.9758C64.4452 16.9758 61.96 20.8735 61.4458 23.2121C59.5604 32.2199 59.1319 34.2987 54.5041 33.779C52.9616 33.6058 52.7902 32.9995 53.0473 31.527C54.4184 25.6373 55.3611 19.9207 56.6466 13.4247C56.818 12.4719 57.0751 12.3853 58.1035 12.3853C60.4174 12.2987 63.4168 11.779 63.2454 13.5979C63.1597 14.031 63.1597 14.3774 63.074 14.8105C63.074 15.1569 62.9883 15.5034 62.9883 15.8499C62.9883 16.1963 62.9026 16.3695 62.9026 16.4562H62.9883C63.5025 15.8499 64.0167 15.2436 64.6166 14.7239C65.2165 14.2042 65.8164 13.6845 66.502 13.2514C67.1876 12.8184 67.9589 12.4719 68.5588 12.2121C69.3301 11.9522 70.0157 11.8656 70.7869 11.8656C72.5009 11.8656 73.7864 12.3853 74.7291 13.338C75.6718 14.2908 76.1003 15.6766 76.1003 17.4955ZM239.528 26.7632C239.443 27.1963 239.357 27.716 239.185 28.3223C239.1 28.9286 239.014 29.5349 238.928 30.2278C238.843 30.8341 238.843 31.527 238.757 32.1333C238.586 34.2987 231.901 35.6845 232.244 31.9601C232.244 31.6136 232.33 31.2672 232.33 30.9207C232.415 30.5743 232.415 30.3144 232.415 30.1412H232.33C231.901 30.6609 231.473 31.1806 231.13 31.7002C230.701 32.2199 230.187 32.653 229.673 32.9995C229.159 33.3459 228.559 33.6924 227.873 33.9522C227.273 34.1254 226.502 34.2987 225.731 34.2987C224.702 34.2987 223.76 34.1254 222.988 33.779C222.217 33.4325 221.531 32.8262 220.932 32.1333C220.332 31.4404 219.989 30.5743 219.732 29.5349C219.389 28.4955 219.303 27.3695 219.303 26.0703C219.303 25.464 219.389 24.5979 219.475 23.7317C219.646 22.6924 219.903 21.7396 220.246 20.7002C220.589 19.6609 221.189 18.6215 221.874 17.5821C222.56 16.5428 223.331 15.59 224.445 14.8105C225.474 14.031 226.759 13.338 228.302 12.8184C229.759 12.2987 231.558 12.0388 233.529 12.0388C234.301 12.0388 235.158 12.1254 235.843 12.1254C236.614 12.2121 237.471 12.2121 238.157 12.3853C243.899 13.1648 240.642 21.3065 239.528 26.7632ZM235.072 16.8026C234.729 16.716 234.386 16.716 234.044 16.716C233.701 16.716 233.272 16.6294 232.929 16.6294C231.987 16.6294 231.13 16.8026 230.444 17.1491C229.673 17.4955 229.073 17.9286 228.559 18.3617C228.045 18.8814 227.53 19.401 227.188 20.094C226.845 20.7003 226.588 21.3932 226.331 22.0861C226.159 22.6924 225.988 23.3853 225.902 23.9916C225.816 24.5979 225.816 25.2042 225.816 25.6373C225.816 26.0703 225.902 26.6766 225.902 27.1097C225.988 27.5428 226.245 27.8892 226.416 28.2357C226.673 28.5821 226.93 28.7554 227.188 29.0152C227.53 29.1884 227.959 29.2751 228.387 29.2751C229.159 29.2751 229.844 29.1018 230.444 28.6688C231.044 28.1491 231.644 27.6294 232.072 26.8499C232.587 26.1569 232.929 25.3774 233.272 24.5113C233.615 23.5585 233.786 22.6924 234.044 21.8262L235.072 16.8026ZM266.609 17.4955C266.609 17.6688 266.523 18.0152 266.523 18.2751C266.438 18.6215 266.438 19.0546 266.352 19.3144C266.266 19.6609 266.266 20.094 266.181 20.4404C266.095 20.7869 266.095 21.0467 266.009 21.3065C264.124 30.5743 264.124 33.6924 259.068 33.6924C257.097 33.6924 257.011 33.0861 257.439 31.3538C258.468 27.4562 259.839 21.5664 259.839 19.0546C259.839 18.3617 259.668 17.842 259.325 17.4089C258.982 17.0625 258.468 16.8892 257.782 16.8892C255.04 16.8892 252.554 20.7003 252.04 23.1254C250.241 32.2199 249.726 34.2987 245.099 33.779C243.556 33.6058 243.385 32.9995 243.727 31.527C245.099 25.5506 246.041 19.8341 247.327 13.4247C247.498 12.4719 247.67 12.3853 248.698 12.3853C251.012 12.2987 254.097 11.779 253.84 13.5979C253.84 14.031 253.754 14.3774 253.754 14.8105C253.669 15.1569 253.669 15.5034 253.669 15.8499C253.583 16.1963 253.583 16.3695 253.583 16.4562H253.669C254.097 15.8499 254.697 15.2436 255.297 14.6373C255.897 14.031 256.497 13.5979 257.182 13.1648C257.868 12.7317 258.553 12.3853 259.239 12.1254C260.01 11.8656 260.696 11.779 261.467 11.779C263.181 11.779 264.467 12.2987 265.324 13.2514C266.181 14.3774 266.609 15.6766 266.609 17.4955ZM99.1533 26.59C99.0676 27.0231 98.9819 27.6294 98.8105 28.1491C98.7248 28.7554 98.6391 29.3617 98.5534 30.0546C98.4677 30.6609 98.4677 31.3538 98.382 31.9601C98.2106 34.1255 91.5261 35.5113 91.8689 31.7869C91.8689 31.4404 91.9546 31.094 91.9546 30.7475C91.9546 30.401 92.0403 30.1412 92.0403 29.968H91.9546C91.5261 30.4877 91.1833 31.0073 90.7548 31.527C90.3263 32.0467 89.8121 32.4798 89.2979 32.8262C88.7837 33.1727 88.1838 33.5191 87.5839 33.779C86.8984 33.9522 86.1271 34.1254 85.3558 34.1254C84.3274 34.1254 83.3847 33.9522 82.6134 33.6058C81.8421 33.2593 81.1565 32.7396 80.5566 31.9601C80.0424 31.2672 79.6139 30.401 79.3568 29.3617C79.014 28.3223 78.9283 27.1963 78.9283 25.8971C78.9283 25.2908 79.0141 24.4247 79.1854 23.5585C79.2711 22.6058 79.5282 21.653 79.9567 20.527C80.3852 19.401 80.8994 18.4483 81.585 17.4089C82.2706 16.3695 83.1276 15.4168 84.156 14.6373C85.1844 13.8577 86.4699 13.1648 87.9267 12.6451C89.3836 12.1254 91.1833 11.8656 93.1544 11.8656C93.9257 11.8656 94.7827 11.9522 95.554 11.9522C96.3252 12.0388 97.0965 12.0388 97.8678 12.2121C103.524 13.0782 100.267 21.2199 99.1533 26.59ZM94.697 16.716C94.3542 16.6294 94.0114 16.6294 93.6686 16.5428C93.3258 16.5428 92.8973 16.4562 92.5545 16.4562C91.6118 16.4562 90.8405 16.6294 90.0692 16.9758C89.2979 17.3223 88.698 17.7554 88.1838 18.1884C87.6696 18.7081 87.1555 19.3144 86.8127 19.9207C86.4699 20.527 86.2128 21.2199 86.0414 21.9128C85.7843 22.6058 85.6986 23.2121 85.5272 23.8184C85.4415 24.5113 85.4415 25.031 85.4415 25.464C85.4415 25.9837 85.5272 26.5034 85.6129 26.9365C85.6986 27.3695 85.87 27.716 86.0414 28.0625C86.2985 28.4089 86.5556 28.5821 86.8984 28.842C87.2412 29.0152 87.5839 29.1884 88.0124 29.1884C88.7837 29.1884 89.4693 28.9286 90.0692 28.4955C90.5834 27.9758 91.1833 27.4562 91.6118 26.6766C92.126 25.9837 92.4688 25.2042 92.8116 24.338C93.1544 23.3853 93.3258 22.5191 93.5829 21.653L94.697 16.716ZM113.636 17.2357L112.008 25.2042C112.008 25.3774 111.922 25.5506 111.922 25.7239C111.922 25.9837 111.837 26.1569 111.837 26.3302C111.837 26.59 111.751 26.7632 111.751 26.9365C111.751 27.1097 111.665 27.2829 111.665 27.3695C111.665 27.8892 111.837 28.4089 112.094 28.5821C112.351 28.842 112.865 28.9286 113.465 28.9286C113.636 28.9286 113.808 28.9286 114.065 28.842C117.921 28.2357 116.722 33.3459 111.751 33.8656C111.323 33.9522 110.894 33.9522 110.466 33.9522C109.437 33.9522 108.58 33.779 107.809 33.5192C107.123 33.2593 106.609 32.9129 106.181 32.3932C105.752 31.8735 105.495 31.3538 105.324 30.7475C105.152 30.1412 105.067 29.4483 105.067 28.6688C105.067 28.4089 105.067 28.1491 105.067 27.8892C105.152 27.5428 105.152 27.2829 105.152 26.9365C105.152 26.59 105.238 26.3302 105.324 25.9837C105.409 25.7239 105.409 25.464 105.495 25.2042L107.123 16.9758C101.381 16.9758 103.695 12.2121 108.152 12.2121L109.266 7.18844C117.321 5.19631 116.379 3.98371 114.665 12.2121C116.293 12.2121 118.007 12.2121 119.635 12.2121C118.35 18.1018 119.55 17.2357 113.636 17.2357ZM126.406 2.59789C126.92 2.42466 127.434 2.33804 128.034 2.33804C128.548 2.33804 129.062 2.42466 129.491 2.59789C129.919 2.6845 130.262 2.94434 130.605 3.20419C130.948 3.55064 131.205 3.81049 131.376 4.24356C131.548 4.67663 131.633 5.02308 131.633 5.54277C131.633 6.06245 131.548 6.58214 131.29 7.01521C131.119 7.44828 130.776 7.79474 130.519 8.14119C130.176 8.48765 129.748 8.66088 129.319 8.83411C128.805 9.00734 128.291 9.09395 127.777 9.09395C127.263 9.09395 126.748 9.00734 126.32 8.92072C125.891 8.74749 125.549 8.48765 125.206 8.22781C124.863 7.88135 124.606 7.62151 124.435 7.18844C124.263 6.75537 124.177 6.40891 124.177 5.88923C124.177 5.36954 124.263 4.84986 124.52 4.41678C124.606 4.15694 125.034 3.63726 125.549 3.20419C125.72 2.85773 126.234 2.77112 126.406 2.59789ZM126.406 34.0388C126.063 34.0388 125.634 34.1254 125.206 34.1254C124.263 34.1254 123.492 34.0388 122.892 33.779C122.206 33.5191 121.692 33.1727 121.264 32.7396C120.835 32.3065 120.492 31.7869 120.235 31.1806C120.064 30.6609 119.978 29.968 119.978 29.2751C119.978 28.9286 119.978 28.5821 120.064 28.2357C120.064 27.8892 120.15 27.4562 120.15 27.0231C120.235 26.6766 120.235 26.2436 120.321 25.8105C120.407 25.464 120.407 25.031 120.578 24.5979C120.664 24.338 120.664 23.905 120.835 23.2987C120.921 22.6924 121.178 21.9128 121.264 21.1333C121.435 20.3538 121.606 19.4877 121.778 18.5349C121.949 17.5821 122.121 16.716 122.292 15.9365C122.463 15.1569 122.635 14.464 122.721 13.7711C122.892 13.1648 122.978 12.7317 123.063 12.5585C132.747 12.0388 129.319 13.8577 127.177 24.5113C127.091 24.9443 126.92 25.5506 126.834 26.1569C126.748 26.6766 126.663 27.2829 126.663 27.716C126.663 28.2357 126.834 28.5821 127.177 28.842C127.52 29.0152 127.948 28.9286 128.377 29.1884C130.519 30.1412 130.091 33.6924 126.406 34.0388ZM136.947 33.6924L134.204 12.3853C141.146 11.4325 140.803 13.6845 141.574 24.1648C141.574 24.4247 141.66 24.6845 141.66 25.1176C141.66 25.5506 141.746 25.8971 141.746 26.3302C141.746 26.6766 141.746 27.1097 141.746 27.5428C141.831 27.8892 141.746 28.3223 141.746 28.5821H141.831C141.917 28.3223 142.088 27.9758 142.26 27.6294C142.346 27.2829 142.603 26.8499 142.688 26.5034C142.86 26.1569 143.031 25.7239 143.203 25.3774C143.374 25.031 143.545 24.5979 143.717 24.2514C145.431 20.6136 147.145 16.9758 148.859 13.4247C149.03 13.0782 149.202 12.7317 149.373 12.3853C152.115 12.3853 156.057 11.1727 154.858 13.6845C152.629 18.8814 149.373 27.2829 145.002 31.527C142.688 33.6924 140.032 34.6451 136.947 33.6924ZM175.425 17.9286C175.425 18.968 175.254 20.0073 174.74 20.9601C174.311 21.9128 173.54 22.6058 172.426 23.2987C171.312 23.9916 169.855 24.5113 168.141 24.8577C166.341 25.2042 164.199 25.464 161.456 25.464C161.456 25.5506 161.456 25.6373 161.456 25.7239C161.456 25.8105 161.456 25.8105 161.456 25.8971C161.456 26.3302 161.542 26.7632 161.628 27.1963C161.714 27.6294 161.971 27.9758 162.399 28.3223C162.742 28.6688 163.17 28.9286 163.685 29.1884C164.199 29.3617 164.884 29.5349 165.741 29.5349C166.256 29.5349 166.77 29.4483 167.37 29.4483C167.884 29.3617 168.569 29.1884 169.084 29.0152C169.684 28.9286 170.283 28.6688 170.969 28.4089C174.397 27.0231 172.512 32.653 168.398 33.779C167.712 33.8656 167.027 34.0388 166.341 34.1254C165.57 34.2121 164.884 34.2121 164.113 34.2121C162.485 34.2121 161.114 33.9522 160 33.5192C158.885 32.9995 157.943 32.3932 157.257 31.6136C156.486 30.8341 155.972 29.968 155.629 28.842C155.286 27.716 155.115 26.59 155.115 25.3774C155.115 23.5585 155.458 21.8262 156.057 20.1806C156.657 18.5349 157.514 17.1491 158.628 15.8499C159.742 14.6373 161.114 13.5979 162.656 12.905C164.199 12.1254 165.913 11.779 167.798 11.779C169.255 11.779 170.369 11.9522 171.398 12.2987C172.34 12.6451 173.112 13.0782 173.711 13.6845C174.311 14.2042 174.826 14.8971 175.083 15.59C175.254 16.3695 175.425 17.0625 175.425 17.9286ZM169.255 17.9286C169.255 17.4089 169.084 16.9758 168.741 16.6294C168.398 16.2829 167.798 16.1097 167.113 16.1097C166.513 16.1097 165.913 16.1963 165.399 16.5428C164.884 16.8026 164.37 17.1491 163.856 17.5821C163.428 18.1018 162.999 18.6215 162.656 19.2278C162.313 19.8341 162.142 20.527 161.885 21.3065C164.37 21.3932 166.17 21.0467 167.455 20.527C168.655 19.9207 169.255 19.0546 169.255 17.9286ZM199.421 19.8341C199.421 20.6136 199.335 21.5664 199.164 22.6058C199.078 23.6451 198.736 24.6845 198.307 25.7239C197.964 26.7632 197.364 27.8026 196.679 28.842C195.993 29.8814 195.136 30.7475 194.108 31.527C193.079 32.3066 191.794 32.9995 190.423 33.4325C188.966 33.8656 187.338 34.1254 185.452 34.1254C184.681 34.1254 183.824 34.0388 183.053 34.0388C182.196 33.9522 181.424 33.779 180.653 33.5192C179.882 33.3459 179.11 33.1727 178.425 32.8262C176.968 32.1333 176.539 31.4404 176.968 29.5349L182.71 2.16482C191.537 2.16482 189.309 1.90497 187.338 11.5191C187.252 11.8656 187.252 12.1254 187.08 12.5585C186.995 12.905 186.909 13.338 186.823 13.6845C186.738 14.031 186.652 14.464 186.566 14.7239C186.481 15.0703 186.395 15.3302 186.309 15.59H186.481C186.823 15.0703 187.252 14.5506 187.68 14.1176C188.195 13.6845 188.709 13.2514 189.137 12.905C189.651 12.5585 190.337 12.3853 190.937 12.1254C191.537 11.9522 192.222 11.779 192.994 11.779C193.936 11.779 194.793 11.9522 195.565 12.2987C196.336 12.6451 197.022 13.1648 197.536 13.7711C198.05 14.464 198.564 15.2436 198.907 16.2829C199.335 17.3223 199.421 18.5349 199.421 19.8341ZM192.908 20.6136C192.908 19.4876 192.651 18.5349 192.222 17.9286C191.794 17.2357 191.023 16.8892 190.08 16.8892C189.48 16.8892 188.88 17.0625 188.28 17.4089C187.68 17.7554 187.166 18.3617 186.652 18.968C186.223 19.5743 185.795 20.3538 185.452 21.2199C185.109 21.9995 184.852 22.8656 184.681 23.8184L183.567 29.0152C183.91 29.1018 184.338 29.2751 184.767 29.3617C185.281 29.4483 185.795 29.4483 186.395 29.4483C187.08 29.4483 187.68 29.3617 188.28 29.1018C188.88 28.842 189.394 28.4955 189.909 28.0625C190.423 27.6294 190.851 27.1097 191.194 26.5034C191.537 25.9837 191.88 25.2908 192.137 24.5979C192.394 23.905 192.565 23.2121 192.651 22.5191C192.908 21.9128 192.908 21.2199 192.908 20.6136ZM216.647 18.0152C216.218 17.9286 215.79 17.842 215.447 17.842C214.676 17.842 213.904 18.0152 213.304 18.3617C212.619 18.7081 212.105 19.2278 211.59 19.8341C211.076 20.4404 210.648 21.1333 210.391 21.9995C210.048 22.779 209.791 23.6451 209.619 24.6845L208.248 31.0073C207.82 33.0861 207.22 33.6924 205.077 33.6058H201.221L204.135 20.0073C204.22 19.401 204.392 18.7081 204.477 18.0152C204.563 17.3223 204.734 16.6294 204.82 15.9365C204.906 15.2436 205.077 14.6373 205.163 14.031C205.249 13.4247 205.334 12.8184 205.42 12.3853C207.82 12.3853 211.933 11.3459 211.676 13.5979C211.59 14.031 211.59 14.3774 211.505 14.8105C211.505 15.2436 211.419 15.59 211.419 15.9365C211.333 16.2829 211.333 16.4562 211.333 16.716H211.419C212.19 15.0703 213.133 13.9443 214.076 13.0782C215.018 12.2987 216.132 11.8656 217.332 11.8656C217.675 11.8656 218.018 11.9522 218.361 11.9522C218.703 12.0388 218.96 12.0388 219.303 12.1254C218.446 14.9837 218.875 18.7081 216.647 18.0152ZM288.977 26.59C288.891 27.0231 288.805 27.6294 288.719 28.1491C288.634 28.7554 288.548 29.3617 288.462 30.0546C288.377 30.6609 288.291 31.3538 288.291 31.9601C288.034 34.7317 284.863 33.6058 281.606 33.6058C281.606 33.4325 281.606 33.1727 281.606 32.8262C281.692 32.4798 281.692 32.2199 281.692 31.7869C281.692 31.4404 281.778 31.094 281.778 30.7475C281.864 30.401 281.864 30.2278 281.864 29.968H281.778C281.349 30.4877 280.921 31.094 280.492 31.6136C279.978 32.1333 279.464 32.5664 279.035 32.9128C278.521 33.2593 277.921 33.5192 277.322 33.6924C276.722 33.9522 276.036 34.0388 275.265 34.0388C274.236 34.0388 273.379 33.8656 272.522 33.5192C271.751 33.1727 271.065 32.5664 270.466 31.8735C269.951 31.1806 269.437 30.401 269.266 29.3617C268.923 28.3223 268.752 27.1097 268.752 25.8971C268.752 23.9916 269.094 22.2593 269.694 20.4404C270.294 18.7947 271.237 17.2357 272.437 15.9365C273.636 14.6373 275.008 13.5979 276.722 12.8184C278.436 12.0388 280.321 11.6058 282.549 11.6058C283.063 11.6058 283.663 11.6924 284.177 11.6924C284.692 11.6924 285.206 11.779 285.549 11.8656L287.434 3.2908L287.777 1.90497C288.291 1.81836 288.805 1.81836 289.319 1.81836C297.375 2.33804 292.576 9.18056 288.977 26.59ZM284.52 16.716C284.177 16.6294 283.92 16.6294 283.492 16.5428C283.063 16.5428 282.721 16.4562 282.378 16.4562C281.349 16.4562 280.578 16.6294 279.807 16.9758C279.121 17.3223 278.521 17.7554 277.921 18.1884C277.407 18.7081 276.893 19.3144 276.636 20.0073C276.293 20.6136 275.95 21.3065 275.779 21.9128C275.607 22.6058 275.436 23.2987 275.35 23.905C275.265 24.5113 275.179 25.1176 275.179 25.5506C275.179 26.0703 275.265 26.59 275.35 27.0231C275.436 27.4562 275.608 27.8026 275.865 28.1491C276.036 28.4955 276.379 28.6688 276.636 28.9286C276.979 29.1018 277.407 29.2751 277.836 29.2751C278.607 29.2751 279.293 29.0152 279.892 28.5821C280.492 28.1491 281.007 27.5428 281.521 26.7632C281.949 26.0703 282.378 25.2908 282.721 24.338C283.063 23.4719 283.235 22.5191 283.492 21.5664L284.52 16.716ZM307.059 16.8026C306.631 16.716 306.202 16.5428 305.688 16.4562C305.259 16.3695 304.831 16.3695 304.402 16.3695C303.374 16.3695 302.688 16.5428 302.26 16.8892C301.831 17.3223 301.66 17.7554 301.66 18.3617C301.66 18.968 301.831 19.401 302.26 19.7475C302.688 20.0939 303.288 20.527 303.888 20.8735C304.745 21.2199 305.431 21.653 306.031 22.0861C306.631 22.4325 307.23 22.8656 307.573 23.3853C308.002 23.905 308.345 24.4247 308.516 25.031C308.773 25.6373 308.859 26.3302 308.859 27.1097C308.859 27.8892 308.773 28.7554 308.345 29.7081C308.002 30.4877 307.402 31.2672 306.716 31.9601C305.945 32.653 304.917 33.1727 303.717 33.6058C302.517 34.0388 300.974 34.2121 299.089 34.2121C298.575 34.2121 298.061 34.2121 297.461 34.1254C296.861 34.0388 296.261 34.0388 295.747 33.8656C291.205 33.1727 291.376 27.6294 296.347 29.1884C296.861 29.2751 297.375 29.4483 297.975 29.5349C298.575 29.6215 299.175 29.7081 299.603 29.7081C300.632 29.7081 301.403 29.5349 301.917 29.1884C302.431 28.842 302.688 28.3223 302.688 27.716C302.688 27.1963 302.517 26.6766 302.088 26.3302C301.746 25.9837 301.06 25.5506 300.117 25.1176C299.346 24.7711 298.661 24.338 298.061 23.905C297.461 23.5585 296.947 23.1254 296.518 22.6058C296.09 22.0861 295.747 21.5664 295.575 20.9601C295.404 20.3538 295.233 19.7475 295.233 18.968C295.233 18.1884 295.404 17.3223 295.747 16.5428C296.09 15.6766 296.518 14.8971 297.204 14.2042C297.975 13.5113 298.832 12.9916 300.032 12.5585C301.232 12.1254 302.688 11.8656 304.317 11.8656C304.831 11.8656 305.345 11.9522 305.945 11.9522C306.459 11.9522 307.059 12.0388 307.573 12.1254C308.087 12.2121 308.602 12.2987 309.03 12.3853C311.258 12.9916 310.744 17.9286 307.059 16.8026Z" fill="black"></path><path d="M224.259 51.3509H225.529L222.207 41.9854H220.818L217.482 51.3509H218.753L219.494 49.2561H223.518L224.259 51.3509ZM223.174 48.2561H219.838L221.506 43.499L223.174 48.2561Z" fill="black"></path><path d="M233.384 41.9313H230.512V51.3509H233.384C236.415 51.3509 238.281 49.5805 238.281 46.6614C238.281 43.7423 236.415 41.9313 233.384 41.9313ZM231.716 50.3373V42.9314H233.384C235.792 42.9314 237.05 44.3639 237.05 46.6614C237.05 48.9588 235.792 50.3373 233.384 50.3373H231.716Z" fill="black"></path><path d="M239.869 51.3509H241.074V43.945H239.869V51.3509ZM240.491 42.7422C240.928 42.7422 241.285 42.3773 241.285 41.9043C241.285 41.4313 240.928 41.0664 240.491 41.0664C240.028 41.0664 239.671 41.4313 239.671 41.9043C239.671 42.3773 240.028 42.7422 240.491 42.7422Z" fill="black"></path><path d="M242.676 47.6209C242.676 49.9183 244.172 51.4725 246.118 51.4725C247.441 51.4725 248.381 50.7562 248.818 49.9589V51.513C248.818 53.0942 247.851 53.9321 246.568 53.9321C245.376 53.9321 244.516 53.324 244.251 52.432H243.06C243.298 54.0132 244.662 54.9997 246.568 54.9997C248.698 54.9997 250.035 53.5537 250.035 51.513V43.945H248.818V45.2964C248.394 44.4991 247.441 43.8233 246.118 43.8233C244.172 43.8233 242.676 45.3099 242.676 47.6209ZM248.818 47.6344C248.818 49.3778 247.679 50.3913 246.356 50.3913C245.032 50.3913 243.907 49.3642 243.907 47.6209C243.907 45.8775 245.032 44.891 246.356 44.891C247.679 44.891 248.818 45.9181 248.818 47.6344Z" fill="black"></path><path d="M252.071 51.3509H253.275V43.945H252.071V51.3509ZM252.693 42.7422C253.129 42.7422 253.487 42.3773 253.487 41.9043C253.487 41.4313 253.129 41.0664 252.693 41.0664C252.229 41.0664 251.872 41.4313 251.872 41.9043C251.872 42.3773 252.229 42.7422 252.693 42.7422Z" fill="black"></path><path d="M255.592 49.3237C255.592 50.8103 256.32 51.3509 257.604 51.3509H258.689V50.3102H257.803C257.062 50.3102 256.797 50.0535 256.797 49.3237V44.9585H258.689V43.945H256.797V42.08H255.592V43.945H254.653V44.9585H255.592V49.3237Z" fill="black"></path><path d="M259.699 47.6209C259.699 49.9183 261.194 51.4725 263.127 51.4725C264.463 51.4725 265.403 50.7697 265.84 49.9724V51.3509H267.058V43.945H265.84V45.2964C265.416 44.5261 264.49 43.8233 263.14 43.8233C261.194 43.8233 259.699 45.3099 259.699 47.6209ZM265.84 47.6344C265.84 49.3778 264.702 50.3913 263.378 50.3913C262.055 50.3913 260.93 49.3642 260.93 47.6209C260.93 45.8775 262.055 44.891 263.378 44.891C264.702 44.891 265.84 45.9181 265.84 47.6344Z" fill="black"></path><path d="M269.093 51.3509H270.297V41.3502H269.093V51.3509Z" fill="black"></path><path d="M281.781 51.3509H282.986V41.9313H281.781V46.0667H277.083V41.9313H275.879V51.3509H277.083V47.0803H281.781V51.3509Z" fill="black"></path><path d="M288.113 44.8639C289.357 44.8639 290.416 45.6613 290.403 47.1073H285.824C285.956 45.6613 286.935 44.8639 288.113 44.8639ZM291.501 49.0669H290.204C289.94 49.8643 289.251 50.4319 288.166 50.4319C286.935 50.4319 285.903 49.6075 285.81 48.1074H291.607C291.634 47.8506 291.647 47.6344 291.647 47.3641C291.647 45.337 290.271 43.8233 288.166 43.8233C286.049 43.8233 284.579 45.2964 284.579 47.6344C284.579 49.9859 286.101 51.4725 288.166 51.4725C289.966 51.4725 291.131 50.4184 291.501 49.0669Z" fill="black"></path><path d="M292.787 47.6209C292.787 49.9183 294.282 51.4725 296.215 51.4725C297.552 51.4725 298.491 50.7697 298.928 49.9724V51.3509H300.146V43.945H298.928V45.2964C298.504 44.5261 297.578 43.8233 296.228 43.8233C294.282 43.8233 292.787 45.3099 292.787 47.6209ZM298.928 47.6344C298.928 49.3778 297.79 50.3913 296.466 50.3913C295.143 50.3913 294.018 49.3642 294.018 47.6209C294.018 45.8775 295.143 44.891 296.466 44.891C297.79 44.891 298.928 45.9181 298.928 47.6344Z" fill="black"></path><path d="M303.385 47.3236C303.385 45.6072 304.259 45.0802 305.41 45.0802H305.728V43.8098C304.577 43.8098 303.796 44.3234 303.385 45.1478V43.945H302.181V51.3509H303.385V47.3236Z" fill="black"></path><path d="M307.383 49.3237C307.383 50.8103 308.111 51.3509 309.395 51.3509H310.48V50.3102H309.593C308.852 50.3102 308.587 50.0535 308.587 49.3237V44.9585H310.48V43.945H308.587V42.08H307.383V43.945H306.443V44.9585H307.383V49.3237Z" fill="black"></path><path d="M6.76924 35.0777C7.45483 35.4242 7.96903 35.4242 8.65462 35.5108C8.56892 30.5738 6.76924 19.0541 13.2824 17.7549H13.5395C16.7103 17.1486 19.6241 18.5344 20.6525 21.9124C20.8239 22.6053 20.9953 23.2116 20.9953 23.9045C21.2524 27.2824 22.4522 29.9675 24.1661 31.9596C27.1656 26.5029 27.0799 19.4872 22.2808 14.9832C18.6814 11.6053 13.3681 11.3454 8.99742 13.5108C6.51214 14.7234 4.71247 16.9754 3.85548 19.5738C2.82709 22.6053 3.08419 26.7628 3.34128 29.8809C3.51268 32.5659 4.28397 33.7785 6.68354 34.9911L6.76924 35.0777Z" fill="#A9ABAE"></path><path d="M24.3381 31.8738C24.3381 31.9604 24.3381 31.9604 24.3381 31.8738V31.8738ZM25.0237 32.5667C29.0516 36.3778 35.3933 36.8108 40.2781 32.3935C42.8491 30.0549 44.0489 27.11 44.1346 23.7321C43.8775 14.551 34.1078 9.0943 26.3092 13.8581V9.00769C26.3092 5.02344 20.9102 5.02344 20.9102 5.02344V12.4723C21.1673 12.6455 21.3387 12.8187 21.51 12.9919C22.5384 13.7715 23.3954 14.6376 24.2524 15.5904C25.0237 16.4565 25.7093 17.4959 26.2235 18.6219C28.1089 22.4329 25.8807 19.8345 30.0799 18.1022C34.0221 16.3699 38.307 19.3148 38.4784 23.8187C38.05 31.0943 29.3944 32.1337 26.9091 26.2439C26.7377 28.4959 26.0521 30.6612 25.0237 32.5667ZM26.5663 24.5982C26.4806 24.5116 26.4806 24.3384 26.4806 24.1652V24.2518C26.4806 24.425 26.4806 24.5982 26.5663 24.5982Z" fill="black"></path></g><defs><clipPath id="clip0"><rect width="320" height="55" fill="black"></rect></clipPath></defs></svg>