<?xml version="1.0" encoding="UTF-8"?>
<svg id="Wordmark" xmlns="http://www.w3.org/2000/svg" viewBox="0 0 458.3966739 160">
  <defs>
    <style>
      .cls-1 {
        fill: #fff;
      }
    </style>
  </defs>
  <path class="cls-1" d="M88.092045,58.2088549c-2.6784102-1.1308177-5.7076515-1.6962917-9.0882451-1.6962917-12.4255714,0-20.1308227,5.9805491-23.1162753,17.9417775-1.0535358,4.3930775-1.8662337,8.155389-2.4365296,11.2870646-.2199862,1.3917255-.329458,2.5660713-.329458,3.5231677,0,4.5669292,1.6462475,8.0900969,4.9392637,10.5692423,3.3368049,2.4357477,7.6176739,3.6536216,12.8420855,3.6536216,6.3222575,0,11.3715143-1.4570176,15.147249-4.3711832,3.7757347-2.9576936,6.4322506-7.4160633,7.9690262-13.3748483.9216484-3.6536216,1.7119305-7.4160633,2.3708466-11.2870646.2194649-1.3918558.3289367-2.5444376.3289367-3.4578755,0-3.0446195-.7678665-5.6543491-2.3046422-7.8290587-1.5367757-2.218368-3.6438473-3.8711316-6.3222575-4.9585516ZM84.1406341,74.6500867c-.5270286,3.0446195-1.2954164,6.6111849-2.3051635,10.6999569-.7464935,2.957433-1.9975998,5.1539066-3.7538404,6.5894208-1.7124518,1.4353839-3.7976291,2.1529455-6.2565744,2.1529455-4.2146646,0-6.3222575-2.0005973-6.3222575-6.0023131,0-.956966.0875774-1.8701434.2632536-2.7400533.7902822-4.2192259,1.5805644-7.7857913,2.3708466-10.6999569.7464935-2.9576936,1.9757055-5.1541673,3.6881573-6.5895512,1.7562406-1.4353839,3.8633122-2.1529455,6.3222575-2.1529455,4.1708758,0,6.2565744,1.9789636,6.2565744,5.937021,0,.956966-.0880987,1.8920377-.2632536,2.8054757ZM142.3895399,60.1661847c-2.9416638-2.0008579-6.8492861-3.0012217-11.7228666-3.0012217h-17.5180956c-.4389298,0-.8559653.1522179-1.2511064.4567841-.3951411.3044359-.6365004.6959279-.7245991,1.1743458l-9.0882451,42.4079444c-.0875774.4348898-.0218944.8263818.1975705,1.1743458.2632536.3043056.6365004.4565235,1.1192189.4565235h8.956879c.4389298,0,.8559653-.1522179,1.2511064-.4565235.3951411-.3044359.6370217-.6960582.7245991-1.1743458l3.0297626-14.2882863h8.8906746c5.7514402,0,10.2736684-1.1961098,13.5666846-3.5884598,3.3368049-2.3920893,5.5538697-6.0892389,6.6517155-11.0911882.2632536-1.1743458.3951411-2.3052938.3951411-3.3925834,0-3.7840755-1.4929869-6.6766073-4.4784395-8.6773349ZM134.2891475,72.1056492c-.4389298,1.8702737-1.3610995,3.3055273-2.7659877,4.3060214-1.3616208,1.0003638-2.9640795,1.5005457-4.8078975,1.5005457h-7.5733639l2.5022127-11.6784263h7.9033432c1.799508,0,3.07303.347964,3.8195235,1.0438919.7459722.6523998,1.1192189,1.6092356,1.1192189,2.8706375,0,.565474-.0656831,1.2178739-.1970493,1.9573298ZM194.6352204,57.6217472c.1756762.2609078.2632536.5219459.2632536.7828537,0,.1304539-.0218944.2609078-.0656831.391492l-1.5148813,6.9809129c-.0880987.4785482-.329458.8699099-.7240778,1.1744761-.3513524.3044359-.7689091.4566538-1.2516277.4566538h-11.6566623l-7.3106315,33.7959016c-.0875774.4782875-.3289367.8699099-.7240778,1.1743458-.3951411.3043056-.8121765.4565235-1.2516277.4565235h-8.6931041c-.4827185,0-.8559653-.1522179-1.1192189-.4565235-.2632536-.347964-.3513524-.739456-.2632536-1.1743458l7.3095889-33.7959016h-11.7223453c-.4832398,0-.8564866-.1522179-1.1192189-.4566538-.2199862-.347964-.2856693-.739456-.1980918-1.1744761l1.5148813-6.9809129c.0875774-.4784179.329458-.8699099.7245991-1.1743458.3951411-.3045662.8121765-.4567841,1.2511064-.4567841h35.4313322c.4827185,0,.8559653.1522179,1.1197402.4567841ZM216.3356603,57.6217472c.1756762.2609078.2637749.5219459.2637749.7828537,0,.1304539-.0224157.2609078-.0662044.391492l-9.0882451,42.4079444c-.0880987.4782875-.329458.8699099-.7240778,1.1743458-.3956624.3043056-.8126978.4565235-1.2516277.4565235h-8.8906746c-.4832398,0-.8564866-.1522179-1.1197402-.4565235-.2632536-.347964-.3513524-.739456-.2632536-1.1743458l9.1539282-42.4079444c.0880987-.4784179.329458-.8699099.7245991-1.1743458.3951411-.3045662.8121765-.4567841,1.2511064-.4567841h8.8906746c.4832398,0,.8564866.1522179,1.1197402.4567841ZM274.5397348,57.6217472c.1751549.2609078.2627323.5219459.2627323.7828537,0,.1304539-.0213731.2609078-.0662044.391492l-9.0882451,42.4079444c-.0875774.4782875-.3289367.8699099-.7240778,1.1743458-.3956624.3043056-.8126978.4565235-1.2516277.4565235h-7.968505c-.4832398,0-.8564866-.1522179-1.1197402-.4565235-.2194649-.347964-.2856693-.739456-.1975705-1.1743458l5.1368342-24.0746749-10.0760979,13.2441338c-.4389298.4785482-.8559653.8484065-1.2511064,1.1093143s-.8564866.3913617-1.3835151.3913617h-3.4243824c-.9221696,0-1.55867-.5000516-1.9100224-1.500676l-4.6754887-13.8313718-5.2687217,24.6619129c-.0880987.4782875-.329458.8699099-.7245991,1.1743458-.3951411.3043056-.8121765.4565235-1.2511064.4565235h-7.9028219c-.4832398,0-.8564866-.1522179-1.1197402-.4565235-.2632536-.3044359-.3513524-.6960582-.2632536-1.1743458l9.0882451-42.4079444c.0875774-.4784179.329458-.8699099.7245991-1.1743458.3951411-.3045662.8340709-.4567841,1.3167894-.4567841h7.1125397c1.0540571,0,1.7343462.4784179,2.0419098,1.4353839l7.1787441,20.5515072,16.002693-20.5515072c.2199862-.347964.5275499-.6741639.9221696-.9785998.4389298-.3045662.9659584-.4567841,1.5810857-.4567841h7.1771802c.4827185,0,.8564866.1522179,1.1213041.4567841ZM299.5430955,57.6217472c.1772401.2609078.2648175.5219459.2648175.7828537,0,.1304539-.0234582.2609078-.0662044.391492l-9.0892877,42.4079444c-.0875774.4782875-.329458.8699099-.7240778,1.1743458-.3951411.3043056-.8116553.4565235-1.2516277.4565235h-8.8906746c-.4827185,0-.8564866-.1522179-1.1192189-.4565235-.262211-.347964-.3518737-.739456-.262211-1.1743458l9.1534069-42.4079444c.0875774-.4784179.3289367-.8699099.7240778-1.1743458.3946198-.3045662.811134-.4567841,1.2511064-.4567841h8.8911959c.4821972,0,.8559653.1522179,1.1186976.4567841ZM343.7186186,62.7759144c1.4497195,1.7832175,2.1737973,3.5665654,2.1737973,5.3499133,0,.5219459-.0213731.8916739-.0662044,1.1090537-.0875774.391492-.2841054.717692-.5911478.9787301-.2648175.2609078-.5937542.3913617-.9888953.3913617h-8.8249915c-.9649158,0-1.6248744-.3695977-1.9746629-1.1090537-.0448313-1.0003638-.5723812-1.8485097-1.5826496-2.5444376-1.0076619-.6959279-2.3249727-1.0438919-3.9498471-1.0438919-1.932438,0-3.5338542.347964-4.8089401,1.0438919-1.2276481.6959279-1.9960359,1.7180558-2.3035996,3.0663835-.0448313.2175101-.0662044.5001819-.0662044.8481459,0,1.0438919.6151273,1.9138018,1.8448606,2.6097297,1.2724794.6523998,3.4890229,1.3265637,6.6511942,2.0224916,4.9173693.956966,8.4939696,2.3270578,10.73345,4.1104057,2.2827478,1.7833479,3.4249037,4.1536731,3.4249037,7.1113668,0,1.0003638-.1324088,2.0877837-.3946198,3.2621295-.9654371,4.4366056-3.313868,7.807425-7.0463353,10.1125885-3.6897212,2.261896-8.6284636,3.3927137-14.8183123,3.3927137-3.8648761,0-7.1787441-.5218156-9.9442104-1.5657075-2.7221989-1.0440222-4.7865244-2.435878-6.1919339-4.1756978-1.3600569-1.7398198-2.0413886-3.6753856-2.0413886-5.8065671,0-.347964.0448313-.8697796.1324088-1.5659681.0875774-.3913617.2627323-.7175616.5275499-.9784694.3075636-.2610381.6578734-.391492,1.0530145-.391492h8.4293291c.5275499,0,.9226909.0869258,1.1854233.2610381.3075636.173982.614606.4784179.9221696.913438.3075636,1.1308177,1.0097471,2.0660197,2.1075929,2.8054757,1.1421559.7391953,2.7013472,1.1089233,4.67601,1.1089233,2.502734,0,4.5227495-.3913617,6.0600465-1.1743458,1.5352118-.7829841,2.4573814-1.8483793,2.7649451-3.1968374.0448313-.173982.0662044-.4348898.0662044-.7829841,0-1.0872896-.6813317-1.9355658-2.0413886-2.5445679-1.3621421-.6522695-3.8648761-1.4134895-7.509766-2.2833994-4.2574107-.913438-7.4837012-2.2833994-9.6788716-4.1102754-2.1972556-1.8702737-3.2945801-4.3060214-3.2945801-7.3072431,0-1.0438919.1324088-2.1094175.3951411-3.1968374.8794235-4.0451136,3.0511356-7.220187,6.5208706-9.5254808,3.5124811-2.3052938,8.0352306-3.4578755,13.5672059-3.4578755,3.335241,0,6.2987992.587238,8.8911959,1.7615838,2.5897902,1.1743458,4.5863474,2.6748915,5.9912356,4.5017674ZM405.2751369,58.4046009c0,.1304539-.0234582.2609078-.0662044.391492l-9.089809,42.4079444c-.0875774.4782875-.3289367.8699099-.7235565,1.1743458-.3951411.3043056-.8116553.4565235-1.2516277.4565235h-7.968505c-.4827185,0-.8559653-.1522179-1.1186976-.4565235-.2199862-.347964-.2861906-.739456-.1986131-1.1743458l5.1373555-24.0746749-10.0760979,13.2441338c-.4399724.4785482-.8564866.8484065-1.2516277,1.1093143-.3946198.2609078-.8559653.3913617-1.3835151.3913617h-3.4249037c-.9221696,0-1.55867-.5000516-1.9089798-1.500676l-4.67601-13.8313718-5.269243,24.6619129c-.0875774.4782875-.3289367.8699099-.7240778,1.1743458-.3951411.3043056-.8116553.4565235-1.2516277.4565235h-7.9023006c-.4821972,0-.8559653-.1522179-1.1186976-.4565235-.2648175-.3044359-.352395-.6960582-.2648175-1.1743458l9.089809-42.4079444c.0875774-.4784179.3284154-.8699099.7235565-1.1743458.3951411-.3045662.8351135-.4567841,1.317832-.4567841h7.1120184c1.0530145,0,1.7338249.4784179,2.0413886,1.4353839l7.1787441,20.5515072,16.0037356-20.5515072c.2194649-.347964.5270286-.6741639.9221696-.9785998.4373659-.3045662.9649158-.4567841,1.5800431-.4567841h7.1787441c.4821972,0,.8559653.1522179,1.1186976.4567841.1751549.2609078.2648175.5219459.2648175.7828537Z"/>
</svg>